<svg width="30" height="30" viewBox="0 0 30 30" fill="none" xmlns="http://www.w3.org/2000/svg">
<path d="M0.5 2.28571H6.28571C10.4278 2.28571 13.7857 5.64357 13.7857 9.78571V13.7857H8C3.85787 13.7857 0.5 10.4278 0.5 6.28571V2.28571Z" stroke="#897942" stroke-opacity="0.5"/>
<path d="M16.2142 16.2143H21.9999C26.1421 16.2143 29.4999 19.5722 29.4999 23.7143V27.7143H23.7142C19.5721 27.7143 16.2142 24.3564 16.2142 20.2143V16.2143Z" stroke="#897942" stroke-opacity="0.5"/>
<path d="M16.2142 8C16.2142 3.85787 19.5721 0.5 23.7142 0.5H27.7142V6.28571C27.7142 10.4278 24.3564 13.7857 20.2142 13.7857H16.2142V8Z" stroke="#897942" stroke-opacity="0.5"/>
<path d="M2.28577 23.7143C2.28577 19.5722 5.64363 16.2143 9.78577 16.2143H13.7858V22C13.7858 26.1421 10.4279 29.5 6.28577 29.5H2.28577V23.7143Z" stroke="#897942" stroke-opacity="0.5"/>
</svg>
